<!DOCTYPE svg PUBLIC "-//W3C//DTD SVG 20010904//EN" "http://www.w3.org/TR/2001/REC-SVG-20010904/DTD/svg10.dtd">
<svg version="1.0" xmlns="http://www.w3.org/2000/svg" width="370px" height="185px" viewBox="0 0 3700 1850" preserveAspectRatio="xMidYMid meet">
<g id="layer101" fill="#000000" stroke="none">
</g>
<g id="layer102" fill="#fbfbfb" stroke="none">
<path d="M735 1830 c-68 -32 -69 -34 -50 -64 l17 -26 30 21 c63 46 158 30 158 -25 0 -44 -12 -57 -90 -96 -92 -46 -120 -77 -120 -131 0 -31 8 -48 34 -77 34 -36 36 -37 108 -37 94 0 134 21 116 60 -13 29 -15 29 -48 10 -38 -22 -106 -19 -130 5 -41 41 -15 78 85 124 84 39 110 70 110 132 0 97 -119 153 -220 104z"/>
<path d="M1628 1834 c-34 -18 -48 -43 -48 -86 0 -60 75 -108 168 -108 27 0 32 -4 32 -24 0 -36 -23 -49 -78 -43 -26 2 -55 8 -64 12 -11 4 -20 0 -27 -14 -10 -18 -7 -22 19 -36 49 -25 110 -29 150 -8 56 29 70 69 70 201 l0 112 -30 0 c-25 0 -30 -4 -30 -25 l0 -25 -20 20 c-41 41 -95 50 -142 24z m123 -63 c17 -17 29 -40 29 -55 0 -24 -4 -26 -40 -26 -82 0 -128 53 -80 92 32 26 57 22 91 -11z"/>
<path d="M2 1618 l3 -223 120 0 120 0 3 28 3 27 -90 0 -91 0 0 70 0 70 75 0 75 0 0 30 0 30 -75 0 -75 0 0 95 0 95 -35 0 -35 0 2 -222z"/>
<path d="M320 1680 l0 -160 30 0 30 0 0 160 0 160 -30 0 -30 0 0 -160z"/>
<path d="M527 1820 c-33 -26 -47 -75 -47 -166 0 -64 -2 -72 -21 -77 -29 -8 -22 -51 9 -55 19 -3 22 -9 22 -48 0 -42 1 -44 30 -44 29 0 30 2 30 45 0 45 0 45 35 45 32 0 35 2 35 30 0 28 -3 30 -35 30 l-35 0 0 85 c0 72 3 88 20 105 11 11 29 20 40 20 15 0 20 7 20 25 0 22 -4 25 -39 25 -23 0 -48 -8 -64 -20z"/>
<path d="M1030 1680 l0 -160 30 0 c26 0 30 4 30 26 l0 26 30 -26 c41 -34 89 -42 128 -22 17 9 34 25 37 36 6 20 8 19 41 -10 41 -36 75 -46 116 -34 59 17 72 49 76 194 l4 130 -36 0 -36 0 0 -119 c0 -95 -3 -123 -16 -135 -37 -37 -106 -2 -124 62 -5 20 -10 72 -10 115 l0 77 -30 0 -30 0 0 -119 c0 -129 -8 -151 -53 -151 -64 0 -97 63 -97 185 l0 85 -30 0 -30 0 0 -160z"/>
<path d="M1940 1680 l0 -160 30 0 c26 0 30 3 30 29 l0 29 30 -30 c22 -22 38 -29 62 -28 18 1 48 2 66 1 31 -1 32 -2 32 -46 0 -43 1 -45 30 -45 29 0 30 2 30 45 0 45 0 45 35 45 40 0 55 21 37 51 -7 10 -12 28 -12 39 0 11 -4 20 -10 20 -5 0 -10 -12 -10 -26 0 -20 -4 -25 -16 -20 -9 3 -18 6 -20 6 -9 0 -3 152 6 170 5 10 23 21 40 25 23 5 30 12 30 31 0 20 -5 24 -29 24 -85 0 -111 -40 -111 -170 0 -80 -2 -90 -18 -90 -10 0 -23 -5 -29 -11 -7 -7 -17 -7 -29 -1 -11 5 -32 14 -48 18 -47 14 -66 63 -66 166 l0 88 -30 0 -30 0 0 -160z"/>
<path d="M3177 1795 c-20 -8 -46 -20 -58 -28 -20 -14 -20 -14 3 -20 32 -9 20 -16 -48 -27 -130 -23 -164 -32 -159 -41 4 -5 20 -9 36 -9 54 0 95 -26 133 -82 20 -29 36 -56 36 -59 0 -4 -10 -10 -22 -13 -23 -7 -24 -7 122 -62 12 -5 10 -8 -7 -17 -13 -5 -23 -15 -23 -20 0 -20 88 -95 119 -102 17 -4 31 -11 31 -16 0 -13 -30 -23 -195 -70 -77 -22 -152 -48 -167 -59 -33 -24 -38 -25 -38 -5 0 23 -23 18 -68 -15 -37 -26 -42 -35 -42 -68 0 -81 82 -190 158 -209 l25 -6 -28 -11 -28 -12 32 -24 c84 -65 88 -69 66 -70 -11 0 -30 7 -42 15 -21 15 -21 15 -12 -17 5 -18 9 -34 9 -35 0 -2 26 -16 58 -32 l57 -30 -56 -1 c-61 0 -70 -6 -88 -59 -11 -34 -10 -36 31 -78 l42 -42 -52 19 c-36 14 -77 20 -132 20 -98 0 -102 6 -67 98 14 37 28 75 31 85 3 10 15 17 29 17 34 0 61 33 53 65 -14 55 -85 55 -202 0 -27 -13 -74 -27 -102 -31 -29 -3 -52 -10 -52 -15 0 -18 72 -8 131 17 34 14 64 23 67 19 3 -3 -9 -27 -28 -53 -66 -93 -110 -160 -110 -165 0 -3 8 -7 18 -9 13 -3 6 -14 -33 -51 l-50 -47 47 0 c29 0 96 -18 185 -49 76 -26 182 -58 236 -71 59 -13 101 -28 104 -36 3 -8 -5 -37 -17 -66 -16 -37 -20 -60 -15 -87 17 -92 62 -125 161 -119 76 5 99 22 108 81 4 23 12 56 18 73 15 44 -19 121 -61 135 -22 8 -33 21 -42 47 -7 20 -19 48 -27 61 -15 22 -14 25 4 38 17 13 19 12 22 -11 5 -35 35 -34 61 3 54 76 -11 257 -115 322 -38 23 -45 40 -14 32 25 -7 25 0 0 72 -25 71 -46 98 -73 89 -13 -4 -17 -2 -13 5 4 6 13 11 20 11 20 0 136 60 136 71 0 5 -4 9 -10 9 -25 0 -6 18 25 24 51 10 212 93 256 133 63 57 44 119 -41 138 -32 7 -36 15 -19 32 8 8 -35 42 -159 124 l-170 113 28 17 c15 10 36 31 46 48 10 17 38 45 62 62 61 44 54 63 -23 66 -33 1 -77 -4 -98 -12z m310 -532 c2 -6 -10 -19 -26 -28 -28 -14 -42 -9 -23 9 4 4 8 12 8 17 3 19 4 20 21 17 9 -2 18 -8 20 -15z m-450 -294 c28 -10 36 -24 20 -38 -10 -8 -23 -2 -53 26 -40 37 -37 38 33 12z"/>
<path d="M2635 1648 c25 -15 215 -24 215 -11 0 10 -115 23 -194 23 -36 -1 -39 -2 -21 -12z"/>
<path d="M2338 1628 c-12 -30 17 -61 129 -138 39 -27 91 -72 115 -100 51 -61 148 -135 195 -151 27 -9 33 -15 28 -30 -4 -11 -2 -26 5 -34 9 -11 20 -10 63 11 29 13 67 27 85 30 l32 6 -40 44 c-39 42 -53 67 -27 47 6 -5 38 -25 70 -43 l59 -33 -15 29 c-22 42 -49 63 -177 141 -129 77 -156 89 -220 98 -25 4 -70 15 -100 25 -30 11 -81 26 -113 35 -49 13 -59 20 -70 47 -10 25 -15 28 -19 16z m331 -204 c17 -4 31 -11 31 -16 0 -11 -91 0 -104 13 -12 11 27 12 73 3z"/>
<path d="M314 1446 c-12 -31 1 -51 34 -54 31 -3 32 -2 32 32 0 33 -2 36 -30 36 -17 0 -33 -6 -36 -14z"/>
<path d="M3260 810 c0 -26 30 -78 54 -93 14 -10 54 -28 88 -40 51 -18 68 -30 91 -64 23 -36 34 -43 60 -43 34 0 69 23 84 55 13 26 6 45 -17 45 -10 0 -21 7 -24 15 -6 17 -28 27 -196 91 -119 46 -140 51 -140 34z"/>
<path d="M2451 455 c-95 -30 -110 -45 -35 -33 48 7 114 39 114 54 0 5 7 7 -79 -21z"/>
<path d="M2185 445 c-29 -13 -29 -13 -5 -13 14 -1 34 3 44 7 16 6 16 9 5 13 -8 3 -28 0 -44 -7z"/>
</g>


</svg>